<?xml version="1.0" standalone="no"?>
<!DOCTYPE svg PUBLIC "-//W3C//DTD SVG 20010904//EN"
 "http://www.w3.org/TR/2001/REC-SVG-20010904/DTD/svg10.dtd">
<svg version="1.0" xmlns="http://www.w3.org/2000/svg"
 width="813.000000pt" height="813.000000pt" viewBox="0 0 813.000000 813.000000"
 preserveAspectRatio="xMidYMid meet">

<g transform="translate(0.000000,813.000000) scale(0.100000,-0.100000)"
fill="#000000" stroke="none">
<path d="M3666 7794 c-1408 -162 -2581 -1158 -2970 -2524 -48 -167 -92 -394
-111 -567 -20 -189 -20 -587 0 -776 112 -1030 683 -1960 1555 -2536 388 -256
823 -432 1280 -520 399 -76 891 -76 1290 0 545 104 1044 327 1480 659 689 527
1155 1283 1319 2140 76 398 76 889 0 1290 -168 889 -672 1678 -1410 2207 -158
113 -306 201 -494 293 -374 183 -726 286 -1150 335 -164 19 -620 18 -789 -1z
m930 -1124 c44 -22 81 -79 56 -88 -7 -2 -9 -8 -6 -14 3 -5 -3 -12 -15 -15 -12
-3 -21 -9 -21 -14 0 -12 -49 -32 -72 -31 -10 0 -18 -3 -18 -7 0 -14 -148 -33
-193 -26 -84 14 -148 53 -146 90 0 11 3 14 6 8 2 -7 9 -13 14 -13 4 0 6 7 2
15 -3 9 3 25 13 36 62 69 287 103 380 59z m-42 -265 c8 -8 20 -15 26 -15 6 0
8 -4 5 -10 -3 -5 -2 -10 3 -10 18 0 63 -78 88 -150 31 -92 33 -192 5 -217 -11
-9 -17 -22 -14 -29 8 -22 -42 -28 -70 -9 -77 50 -137 190 -137 318 0 102 49
166 94 122z m-1170 -21 c33 -8 66 -22 73 -31 6 -8 15 -13 20 -10 4 3 14 -1 21
-9 7 -8 9 -14 5 -14 -4 0 0 -5 10 -11 18 -10 24 -39 8 -39 -5 0 -13 -9 -16
-21 -4 -12 -12 -18 -21 -15 -8 3 -14 -1 -14 -8 0 -45 -284 -48 -338 -3 -8 6
-21 12 -30 13 -20 3 -64 55 -57 68 3 6 8 19 11 29 4 9 12 17 18 17 7 0 18 6
24 13 36 35 186 47 286 21z m1881 -65 c46 -21 95 -64 95 -83 0 -6 -5 -4 -11 4
-9 12 -10 12 -5 -3 3 -10 6 -21 6 -23 0 -3 5 -2 11 1 6 4 5 -1 -2 -12 -6 -11
-21 -26 -32 -32 -11 -7 -16 -8 -12 -2 3 6 -11 1 -32 -11 -33 -20 -51 -23 -143
-22 -79 1 -115 6 -145 19 -22 11 -42 19 -45 20 -21 3 -58 39 -53 51 3 8 -1 14
-8 14 -11 0 -11 3 1 10 8 5 11 10 7 10 -10 0 20 45 31 46 6 1 28 9 72 27 26
12 233 0 265 -14z m-1466 -66 c8 -14 11 -15 11 -3 0 12 3 11 11 -3 6 -9 12
-26 14 -36 3 -15 -1 -18 -18 -14 -19 4 -20 3 -5 -6 52 -34 -93 -194 -227 -251
-25 -11 -43 -15 -39 -9 4 8 1 8 -12 2 -11 -5 -28 -9 -40 -9 -85 3 -55 128 54
226 72 65 96 81 118 79 4 0 10 4 13 9 6 11 64 30 93 31 9 1 22 -7 27 -16z
m1157 -202 c11 9 14 8 14 -4 0 -11 6 -14 18 -10 9 3 14 3 10 -2 -4 -4 -3 -14
3 -21 6 -8 8 -22 4 -31 -4 -10 -9 -31 -11 -48 -2 -16 -12 -36 -21 -42 -9 -7
-13 -13 -9 -13 11 0 -48 -81 -81 -111 -45 -43 -103 -78 -144 -89 -34 -9 -40
-8 -61 13 -18 18 -23 33 -21 61 4 65 75 173 158 242 48 39 118 69 123 53 3 -6
10 -5 18 2z m-513 -74 c42 -45 70 -102 91 -184 18 -67 21 -153 7 -153 -5 0 -7
-8 -4 -19 5 -20 -10 -33 -42 -38 -11 -2 -23 -7 -28 -12 -10 -10 -72 47 -99 90
-55 86 -78 288 -38 324 11 10 17 21 15 25 -3 4 11 7 30 6 26 -1 42 -10 68 -39z
m-1843 -2 c81 -33 196 -117 185 -135 -3 -4 2 -11 11 -14 10 -4 14 -14 11 -26
-3 -13 -1 -18 6 -13 6 4 8 0 4 -10 -4 -10 -1 -17 6 -18 9 0 9 -2 0 -5 -7 -3
-9 -12 -6 -20 3 -8 0 -14 -6 -14 -6 0 -11 6 -12 13 0 6 -4 2 -9 -10 -11 -27
-40 -29 -115 -9 -82 22 -156 65 -217 127 -50 51 -58 64 -58 97 0 21 5 43 11
49 17 17 137 9 189 -12z m1255 -300 c62 -19 120 -55 120 -75 0 -8 4 -18 10
-22 13 -10 -33 -58 -70 -73 -16 -7 -49 -16 -72 -20 -34 -5 -43 -4 -43 8 0 7
-9 22 -21 33 -18 17 -35 19 -126 17 -112 -3 -138 5 -138 42 1 30 15 66 25 60
4 -3 11 2 14 11 3 9 12 14 18 12 7 -3 24 1 38 9 35 18 180 17 245 -2z m-680
-87 c66 -57 130 -232 121 -333 -5 -50 -24 -88 -42 -81 -8 3 -13 2 -10 -3 9
-14 -20 -21 -33 -8 -6 6 -11 7 -11 2 0 -5 -11 2 -25 15 -13 12 -22 27 -19 32
3 5 0 7 -6 6 -28 -7 -85 137 -96 243 -5 54 -3 68 11 82 10 11 12 17 4 17 -8 0
-5 7 6 20 10 11 15 20 11 20 -4 0 -4 5 -1 10 12 20 52 10 90 -22z m355 -117
c0 -9 -120 -31 -169 -31 -33 0 -42 15 -13 24 9 3 45 5 80 4 35 0 66 3 69 6 9
9 33 7 33 -3z m1948 -3 c64 -16 125 -78 148 -151 15 -48 15 -61 4 -102 -14
-52 -87 -172 -168 -279 -28 -38 -52 -72 -52 -77 0 -4 24 -15 53 -24 64 -21
137 -62 137 -77 0 -6 3 -8 7 -5 9 9 55 -42 48 -54 -4 -5 -2 -9 4 -9 5 0 9 -9
8 -20 -1 -10 -3 -17 -5 -15 -3 2 -12 -5 -22 -17 -23 -29 -128 -35 -211 -12
-33 9 -61 15 -64 13 -2 -3 -17 -42 -33 -87 -26 -73 -27 -82 -12 -82 16 0 737
-313 749 -325 3 -3 -2 -12 -10 -19 -12 -12 -63 8 -344 135 -181 81 -333 148
-337 149 -4 0 26 -97 67 -216 41 -119 75 -222 75 -230 0 -11 -18 -14 -85 -14
l-85 0 0 -445 0 -445 -1285 0 -1285 0 0 445 0 445 -135 0 c-84 0 -135 4 -135
10 0 6 48 98 106 205 96 176 111 215 84 215 -5 0 -147 -60 -315 -134 -291
-128 -306 -133 -316 -114 -6 11 -7 24 -2 28 4 4 139 63 298 130 308 129 340
144 329 162 -5 7 -2 9 8 5 10 -3 15 0 14 11 0 9 5 16 12 14 6 -1 12 2 12 7 0
5 10 11 21 14 17 5 20 10 14 29 -8 25 -15 87 -16 130 0 15 -5 30 -10 33 -29
19 8 105 45 105 8 0 23 12 34 27 27 37 37 24 34 -45 l-2 -57 51 -32 c59 -38
79 -42 72 -14 -4 15 5 22 51 36 31 10 59 22 62 26 8 14 -29 11 -76 -6 -73 -26
-154 -15 -122 17 5 5 45 14 88 19 79 9 112 23 81 35 -9 3 -40 1 -68 -5 -35 -8
-56 -8 -63 -1 -15 15 -3 21 58 29 85 12 86 22 4 36 -56 9 -94 55 -45 55 12 0
42 -9 66 -20 24 -11 47 -20 52 -20 6 0 7 27 3 64 -5 44 -3 65 5 71 19 11 24 0
29 -60 2 -30 6 -55 9 -55 2 0 19 11 36 24 39 28 65 38 72 27 5 -9 -45 -58 -95
-94 l-25 -18 25 6 c14 4 33 9 43 12 28 9 11 -20 -24 -39 -17 -10 -27 -22 -24
-28 8 -13 35 -13 35 0 0 6 8 19 18 29 37 42 42 51 42 81 0 25 5 33 30 41 27
10 48 41 41 64 -1 5 0 7 4 3 4 -3 20 -2 37 4 25 9 34 7 58 -11 40 -29 44 -27
36 18 -5 34 -84 308 -101 352 -5 14 0 16 37 12 49 -5 320 39 371 61 l35 14 9
-91 c8 -90 9 -92 33 -90 l25 3 -24 -10 c-23 -10 -24 -12 -18 -109 5 -111 6
-113 63 -173 31 -34 85 -101 100 -126 1 -2 20 6 43 17 84 44 190 20 270 -60
38 -38 71 -109 71 -154 0 -12 11 -32 24 -44 l23 -22 27 44 c27 47 105 107 139
107 11 0 35 -14 55 -31 38 -34 90 -59 120 -59 11 0 21 -11 27 -32 11 -33 35
-51 35 -24 0 8 14 22 30 31 41 21 38 27 -4 10 -22 -10 -37 -11 -41 -5 -10 17
3 27 41 35 l37 6 -30 31 c-31 31 -31 31 -16 74 15 44 15 44 -31 149 -25 58
-46 112 -46 119 0 27 181 175 353 289 108 71 259 135 320 136 16 1 49 -4 75
-11z m-1094 -95 c4 -4 -3 -15 -16 -25 -23 -17 -23 -18 -2 -18 12 0 24 -7 28
-15 7 -19 -31 -58 -49 -51 -7 2 -21 -4 -31 -15 -42 -46 -98 -6 -69 50 18 36
28 43 49 35 22 -9 20 -30 -6 -54 -12 -11 -17 -20 -11 -20 6 0 16 6 23 14 6 8
17 13 24 10 6 -2 20 3 31 12 11 8 15 13 9 10 -6 -3 -19 1 -29 8 -18 13 -18 15
-2 40 17 26 37 33 51 19z m-169 -33 c3 -6 -1 -13 -10 -16 -19 -8 -30 0 -20 15
8 14 22 14 30 1z m-88 -41 c5 -25 8 -28 15 -15 14 25 31 19 24 -8 -4 -15 0
-28 9 -36 17 -14 20 -50 5 -50 -5 0 -14 9 -20 20 -14 26 -30 17 -30 -16 0 -13
-4 -24 -9 -24 -13 0 -21 38 -21 103 0 61 16 78 27 26z m-1648 11 c40 -11 73
-43 65 -63 -3 -8 -1 -18 5 -22 6 -3 9 0 5 8 -3 8 -1 17 3 20 5 3 9 -3 10 -13
4 -48 -97 -106 -224 -129 -81 -15 -195 6 -232 44 -14 14 -20 25 -13 25 9 0 10
5 3 18 -14 27 43 75 115 97 33 9 64 19 69 20 24 8 163 4 194 -5z m1743 -59 c3
-48 -15 -68 -26 -29 -8 31 -8 73 1 81 12 13 21 -7 25 -52z m-148 -7 c31 -30 7
-104 -33 -104 -43 0 -51 61 -14 103 20 21 27 21 47 1z m1825 0 c-6 -8 -3 -11
14 -9 21 3 23 0 21 -42 -3 -51 -18 -77 -88 -151 -54 -58 -167 -127 -191 -118
-8 3 -15 1 -15 -4 0 -6 -11 -10 -25 -10 -14 0 -25 5 -25 11 0 6 -7 8 -16 5 -8
-3 -13 -2 -9 3 3 5 -1 12 -7 14 -10 4 -9 8 2 16 9 6 10 11 3 11 -19 0 -4 61
28 106 57 83 204 186 244 170 8 -3 15 -1 15 4 0 6 13 9 29 8 22 -2 27 -5 20
-14z m-1921 -36 c29 -29 1 -108 -38 -108 -39 0 -47 63 -12 103 18 20 33 22 50
5z m-103 -29 c4 -5 0 -18 -9 -28 -28 -31 -17 -68 12 -39 20 20 26 -1 7 -22
-22 -25 -41 -26 -53 -2 -22 41 20 129 43 91z m530 -15 c36 -3 56 -10 74 -28
23 -23 24 -27 11 -52 -15 -27 -114 -104 -135 -104 -29 0 -85 92 -85 140 0 31
37 63 63 55 12 -4 44 -9 72 -11z m-287 -84 c9 -5 29 -14 45 -20 35 -12 55 -53
37 -75 -7 -8 -36 -22 -66 -32 -63 -20 -71 -15 -85 47 -15 67 20 108 69 80z
m-924 -8 c3 -5 -8 -6 -25 -4 -16 2 -29 6 -29 8 0 8 49 4 54 -4z m-770 -33 c4
6 12 11 17 11 6 0 7 -4 4 -10 -6 -9 8 -14 28 -11 12 2 70 -86 91 -137 40 -99
52 -235 23 -254 -7 -4 -8 -8 -4 -8 4 0 -3 -11 -15 -24 -14 -14 -27 -20 -34
-15 -6 5 -14 6 -17 2 -4 -3 -9 1 -13 10 -3 9 -11 14 -18 11 -21 -8 -71 71
-103 163 -28 81 -26 233 3 233 8 0 14 10 14 23 0 16 3 18 9 8 6 -9 11 -10 15
-2z m481 -6 c-40 -6 -55 -20 -56 -52 -2 -24 -2 -25 -6 -3 -6 33 23 62 61 61
l31 -2 -30 -4z m345 -3 c8 -5 11 -10 5 -10 -5 0 -17 5 -25 10 -8 5 -10 10 -5
10 6 0 17 -5 25 -10z m-274 -16 c18 -14 18 -14 -6 -3 -31 14 -36 19 -24 19 6
0 19 -7 30 -16z m1518 -86 c8 -13 20 -42 27 -65 15 -54 4 -70 -57 -79 -35 -5
-49 -3 -64 11 -25 23 -25 27 5 91 32 68 63 83 89 42z m-1664 -53 c0 -5 -5 -3
-10 5 -5 8 -10 20 -10 25 0 6 5 3 10 -5 5 -8 10 -19 10 -25z m689 -2026 c39
-14 56 -41 41 -69 -11 -21 -44 -27 -55 -10 -3 6 -1 10 5 10 6 0 10 10 8 23 -3
19 -9 22 -43 22 -37 0 -40 -2 -43 -31 -3 -28 2 -33 57 -63 67 -36 91 -62 91
-102 0 -70 -131 -109 -185 -54 -30 29 -31 46 -6 69 22 20 58 12 40 -10 -32
-38 31 -80 76 -50 45 29 33 62 -35 96 -63 31 -90 59 -90 91 0 42 10 60 44 75
38 16 54 17 95 3z m-944 -8 c3 -5 -4 -12 -15 -16 -19 -6 -20 -15 -20 -126 l0
-119 46 0 c42 0 47 3 57 30 14 36 37 40 37 6 0 -54 -4 -56 -121 -56 -66 0
-109 4 -109 10 0 6 6 10 14 10 19 0 26 32 26 133 0 75 -3 90 -20 104 -11 10
-20 21 -20 25 0 11 118 10 125 -1z m265 -1 c10 -6 38 -61 66 -131 33 -82 55
-124 66 -127 40 -10 14 -22 -47 -22 -37 0 -65 4 -65 10 0 6 6 10 14 10 22 0
27 16 15 44 -11 23 -18 26 -66 26 -48 0 -54 -3 -63 -26 -14 -36 -13 -44 10
-44 11 0 20 -4 20 -10 0 -5 -25 -10 -55 -10 -53 0 -74 13 -37 22 26 7 119 228
100 239 -7 5 -17 9 -21 9 -5 0 -5 5 -2 10 8 13 41 13 65 0z m478 -37 c2 -32
-1 -43 -11 -43 -8 0 -17 13 -20 29 -6 29 -27 41 -74 41 -21 0 -23 -5 -23 -54
l0 -55 42 -3 c60 -4 63 -28 3 -28 l-46 0 3 -52 3 -53 43 -3 c38 -3 44 0 60 27
16 30 38 37 36 13 -1 -7 -2 -23 -2 -37 l-2 -25 -115 0 c-105 0 -145 10 -95 23
19 5 20 14 20 120 0 107 -2 116 -20 122 -11 3 -20 11 -20 16 0 6 43 9 108 7
l107 -3 3 -42z m514 25 c73 -48 13 -158 -87 -158 -34 0 -35 -1 -35 -41 0 -32
4 -42 20 -46 41 -11 18 -23 -45 -23 -63 0 -86 12 -45 23 18 5 20 14 20 116 0
100 -2 111 -20 121 -11 6 -20 16 -20 22 0 17 182 6 212 -14z m276 -25 c2 -32
-1 -43 -11 -43 -8 0 -17 13 -20 29 -6 29 -27 41 -74 41 -21 0 -23 -5 -23 -54
l0 -55 42 -3 c60 -4 63 -28 3 -28 l-46 0 3 -52 3 -53 43 -3 c38 -3 44 0 60 27
16 30 38 37 36 13 -1 -7 -2 -23 -2 -37 l-2 -25 -115 0 c-105 0 -145 10 -95 23
19 5 20 14 20 120 0 107 -2 116 -20 122 -11 3 -20 11 -20 16 0 6 43 9 108 7
l107 -3 3 -42z m259 27 c18 -11 35 -31 39 -45 7 -30 -16 -70 -46 -80 -26 -8
-25 -15 8 -61 38 -53 57 -66 84 -62 18 2 31 24 70 113 26 61 48 113 48 116 0
3 -10 11 -22 16 -22 10 -22 11 -4 18 10 5 30 4 45 -1 22 -8 34 -30 77 -134 33
-82 56 -126 67 -128 9 -2 17 -8 17 -13 0 -5 -29 -9 -65 -9 -37 0 -65 4 -65 10
0 6 6 10 14 10 22 0 27 16 15 44 -11 23 -18 26 -66 26 -48 0 -54 -3 -63 -26
-14 -36 -13 -44 10 -44 11 0 20 -4 20 -10 0 -6 -34 -10 -83 -10 -96 0 -114 9
-153 75 -16 28 -33 45 -45 45 -16 0 -19 -7 -19 -46 0 -37 4 -47 20 -51 41 -11
18 -23 -45 -23 -63 0 -86 12 -45 23 19 5 20 14 20 120 0 107 -2 116 -20 122
-45 14 -15 25 68 25 69 0 94 -4 119 -20z m470 7 c12 -7 52 -52 90 -102 l68
-90 3 80 c3 71 1 81 -17 94 -33 22 -25 31 29 31 52 0 64 -12 30 -30 -18 -10
-20 -21 -20 -135 0 -94 -3 -125 -12 -125 -7 1 -50 51 -95 112 l-83 112 0 -98
c0 -89 2 -98 20 -103 39 -10 19 -23 -35 -23 -54 0 -74 13 -35 23 19 5 20 14
20 120 0 107 -2 116 -20 122 -11 3 -20 11 -20 16 0 13 51 11 77 -4z m503 3 c0
-5 -9 -14 -19 -20 -19 -9 -131 -206 -131 -229 0 -7 20 -11 51 -11 47 0 52 2
62 30 21 55 47 32 31 -27 -6 -22 -10 -23 -125 -23 -117 0 -139 6 -98 25 12 6
47 59 80 122 56 106 58 112 38 118 -39 13 -88 -3 -95 -30 -8 -32 -34 -33 -34
-1 0 54 4 56 126 56 67 0 114 -4 114 -10z m170 0 c10 -6 38 -61 66 -131 33
-82 55 -124 66 -127 40 -10 14 -22 -47 -22 -37 0 -65 4 -65 10 0 6 6 10 14 10
22 0 27 16 15 44 -11 23 -18 26 -66 26 -48 0 -54 -3 -63 -26 -14 -36 -13 -44
10 -44 11 0 20 -4 20 -10 0 -5 -25 -10 -55 -10 -53 0 -74 13 -37 22 26 7 119
228 100 239 -7 5 -17 9 -21 9 -5 0 -5 5 -2 10 8 13 41 13 65 0z"/>
<path d="M2428 5983 c7 -3 16 -2 19 1 4 3 -2 6 -13 5 -11 0 -14 -3 -6 -6z"/>
<path d="M3700 5292 c-19 -2 -40 -8 -46 -13 -6 -5 -45 -14 -87 -21 -90 -14
-90 -14 -52 -115 30 -78 27 -116 -8 -111 -15 2 -24 13 -30 38 -26 102 -49 170
-57 170 -6 0 -10 -3 -10 -6 0 -24 66 -252 77 -265 7 -8 13 -23 13 -32 0 -9 11
-24 25 -33 14 -9 25 -26 25 -38 0 -12 7 -32 16 -44 25 -36 -2 -83 -97 -166
l-23 -20 35 -11 c19 -7 67 -29 108 -49 73 -37 73 -38 68 -72 l-6 -34 170 0
c158 0 170 1 165 18 -3 9 -19 85 -35 169 -34 176 -50 215 -121 303 -28 36 -56
73 -61 83 -6 9 -13 69 -16 132 -3 64 -9 117 -12 118 -3 1 -22 1 -41 -1z"/>
<path d="M3146 4745 c-3 -9 -29 -27 -58 -41 -52 -25 -53 -25 -14 -19 35 6 86
45 86 66 0 14 -7 10 -14 -6z"/>
<path d="M4890 4689 l-35 -31 32 22 c29 19 50 40 41 40 -2 0 -19 -14 -38 -31z"/>
<path d="M3008 4673 c7 -3 16 -2 19 1 4 3 -2 6 -13 5 -11 0 -14 -3 -6 -6z"/>
<path d="M4043 5219 c-16 -16 -17 -49 -3 -49 13 0 23 24 18 45 -2 13 -5 14
-15 4z"/>
<path d="M3940 5167 c-14 -29 -7 -48 11 -30 6 6 9 21 7 34 l-4 24 -14 -28z"/>
<path d="M2804 2733 c-10 -26 -20 -51 -22 -55 -2 -5 17 -8 42 -8 l46 0 -21 53
c-11 28 -22 53 -23 55 -2 1 -12 -19 -22 -45z"/>
<path d="M3714 2816 c-3 -7 -4 -38 -2 -67 3 -53 4 -54 32 -52 37 3 66 30 66
62 0 34 -10 48 -43 60 -37 14 -47 14 -53 -3z"/>
<path d="M4257 2824 c-4 -4 -7 -31 -7 -61 l0 -53 38 0 c21 0 43 5 50 12 16 16
15 73 -1 87 -18 14 -70 25 -80 15z"/>
<path d="M4564 2733 c-10 -26 -20 -51 -22 -55 -2 -5 17 -8 42 -8 l46 0 -21 53
c-11 28 -22 53 -23 55 -2 1 -12 -19 -22 -45z"/>
<path d="M5474 2733 c-10 -26 -20 -51 -22 -55 -2 -5 17 -8 42 -8 l46 0 -21 53
c-11 28 -22 53 -23 55 -2 1 -12 -19 -22 -45z"/>
</g>
</svg>
